<svg width="19" height="19" viewBox="0 0 19 19" fill="none" xmlns="http://www.w3.org/2000/svg">
<g id="optimizely-1 1" clip-path="url(#clip0_2755_11611)">
<path id="Vector" d="M6.44161 2.87117C5.6102 3.71657 5.05744 4.72919 4.77422 5.80685C5.29956 5.66285 5.83861 5.58853 6.37766 5.58388L4.55951 7.43262C4.55494 7.84139 4.58692 8.25015 4.66001 8.65427L7.5791 5.68608C7.95369 5.75111 8.31915 5.8533 8.68004 5.98801C8.78511 5.82078 8.90845 5.6675 9.05006 5.51885C10.1236 4.42726 11.8687 4.42726 12.9467 5.51885C14.0203 6.61044 14.0203 8.38486 12.9467 9.48109C12.8051 9.62509 12.6498 9.75051 12.4854 9.85734C12.6178 10.2197 12.7183 10.5959 12.7823 10.9768L9.86321 13.945C10.2606 14.0193 10.6626 14.0518 11.0646 14.0472L12.8828 12.1985C12.8782 12.7466 12.8051 13.2947 12.6635 13.8289C13.7188 13.5409 14.7192 12.9788 15.5506 12.1334C18.0677 9.574 18.0677 5.4306 15.5506 2.87117C13.0335 0.316382 8.95413 0.316382 6.44161 2.87117Z" fill="#0037FF"/>
<path id="Vector_2" d="M8.50565 8.71068C8.35033 8.37623 8.26353 8.01857 8.24069 7.65625L6.587 9.33776L5.32617 10.6198C5.47235 10.8985 5.64138 11.1679 5.83324 11.428L7.62398 9.60718L8.50565 8.71068ZM10.8446 10.2993C10.4883 10.2807 10.1365 10.1925 9.80759 10.0299L8.92592 10.9264L7.13518 12.7472C7.391 12.9423 7.65596 13.1142 7.93005 13.2628L9.19088 11.9808L10.8446 10.2993Z" fill="#0037FF"/>
<path id="Vector_3" d="M8.2458 7.65592C8.21383 7.07993 8.36001 6.49465 8.67522 5.99299C8.31433 5.85828 7.94887 5.75609 7.57428 5.69106L4.65519 8.65926C4.71914 9.04015 4.81964 9.41176 4.95212 9.77872C5.05719 10.0667 5.18053 10.3501 5.32672 10.6241L8.2458 7.65592ZM10.8451 10.299L7.9306 13.2672C8.20012 13.4158 8.47878 13.5412 8.76201 13.6481C9.11833 13.7828 9.48836 13.885 9.86295 13.95L12.782 10.9818C12.7135 10.6009 12.6176 10.2293 12.4851 9.86233C11.9872 10.1875 11.4116 10.3315 10.8451 10.299ZM12.6633 13.8292C12.8049 13.295 12.878 12.7469 12.8825 12.1988L11.0644 14.0475C11.5989 14.0475 12.1379 13.9732 12.6633 13.8292ZM4.77396 5.80719C4.63235 6.34137 4.55926 6.88949 4.55469 7.4376L6.37284 5.58887C5.83379 5.59351 5.29474 5.66783 4.77396 5.80719ZM9.80813 10.0342C9.53404 9.89949 9.27365 9.71833 9.04524 9.48608C8.81683 9.25382 8.63867 8.9937 8.50619 8.71035L5.83379 11.4277C6.01652 11.6739 6.21752 11.9108 6.43679 12.1384C6.65607 12.3614 6.88904 12.5658 7.13573 12.7516L9.80813 10.0342Z" fill="#080738"/>
<path id="Vector_4" d="M4.77378 5.80762C3.71853 6.09561 2.71809 6.65766 1.88667 7.50307C0.644118 8.76652 0.0182729 10.4109 0 12.0645L4.55451 7.43339C4.55908 6.88992 4.63217 6.3418 4.77378 5.80762ZM6.50514 18.6837C8.13142 18.6652 9.75314 18.0288 10.9957 16.7653C11.8271 15.9199 12.3799 14.9073 12.6631 13.8296C12.1377 13.9736 11.5987 14.048 11.0596 14.0526L6.50514 18.6837ZM4.49055 10.1554C4.63217 10.0114 4.78749 9.88598 4.95194 9.77915C4.81947 9.41219 4.71897 9.04058 4.65501 8.65969L0.100501 13.2908C0.219274 13.969 0.443117 14.6332 0.772028 15.251L3.68655 12.2875C3.65 11.521 3.91496 10.7407 4.49055 10.1554ZM8.75727 13.6485C8.6522 13.8157 8.52886 13.9736 8.38724 14.1176C8.11408 14.3964 7.78608 14.6133 7.42474 14.7542C7.06339 14.8951 6.67685 14.9568 6.29043 14.9352L3.37591 17.8987C3.98348 18.2332 4.63674 18.4608 5.3037 18.5815L9.8582 13.9504C9.48818 13.8854 9.11815 13.7832 8.75727 13.6485ZM4.49055 14.1176C4.26214 13.8854 4.08398 13.6253 3.95151 13.3419L1.2791 16.0593C1.46183 16.3055 1.66283 16.5424 1.8821 16.77C2.10138 16.9929 2.33436 17.1973 2.58104 17.3831L5.25345 14.6658C4.97935 14.531 4.71897 14.3452 4.49055 14.1176Z" fill="#0037FF"/>
</g>
<defs>
<clipPath id="clip0_2755_11611">
<rect width="19" height="19" fill="white"/>
</clipPath>
</defs>
</svg>
